<?xml version="1.0" standalone="no"?>
<!DOCTYPE svg PUBLIC "-//W3C//DTD SVG 20010904//EN"
 "http://www.w3.org/TR/2001/REC-SVG-20010904/DTD/svg10.dtd">
<svg version="1.0" xmlns="http://www.w3.org/2000/svg"
 width="505.000000pt" height="141.000000pt" viewBox="0 0 505.000000 141.000000"
 preserveAspectRatio="xMidYMid meet">

<g transform="translate(0.000000,141.000000) scale(0.100000,-0.100000)"
fill="#000000" stroke="none">
<path d="M3539 1370 c-20 -10 -47 -34 -61 -52 -13 -18 -116 -260 -228 -538
-186 -461 -204 -510 -204 -565 0 -80 29 -136 91 -176 l47 -29 445 0 c433 0
446 1 489 21 26 13 54 38 70 62 23 35 27 51 27 116 0 75 -2 80 -198 571 -109
272 -210 512 -224 532 -50 73 -173 101 -254 58z m160 -97 c22 -20 51 -80 106
-215 41 -103 75 -193 75 -201 0 -9 -35 -50 -77 -92 -123 -123 -228 -186 -375
-229 -77 -22 -188 -42 -188 -34 0 1 69 173 153 381 132 325 157 381 183 397
42 29 88 26 123 -7z"/>
<path d="M20 700 l0 -570 110 0 110 0 0 230 0 230 120 0 120 0 0 -230 0 -230
110 0 110 0 0 570 0 570 -110 0 -110 0 0 -230 0 -230 -120 0 -120 0 0 230 0
230 -110 0 -110 0 0 -570z"/>
<path d="M800 782 l0 -487 83 -83 82 -82 190 0 190 0 83 83 82 82 0 488 0 487
-110 0 -110 0 0 -460 0 -460 -135 0 -135 0 0 460 0 460 -110 0 -110 0 0 -488z"/>
<path d="M1610 1165 l0 -105 185 0 c126 0 185 -3 185 -11 0 -6 -83 -170 -185
-365 l-185 -354 0 -100 0 -100 330 0 330 0 0 110 0 110 -185 0 c-102 0 -185 2
-185 5 0 3 83 164 185 359 l185 354 0 101 0 101 -330 0 -330 0 0 -105z"/>
<path d="M2370 700 l0 -570 290 0 290 0 0 110 0 110 -180 0 -180 0 0 460 0
460 -110 0 -110 0 0 -570z"/>
<path d="M4330 700 l0 -570 273 0 273 0 82 89 82 89 0 163 0 163 -32 33 -32
33 32 33 32 33 0 170 0 169 -83 83 -82 82 -273 0 -272 0 0 -570z m490 235 l0
-125 -135 0 -135 0 0 125 0 125 135 0 135 0 0 -125z m0 -465 l0 -120 -135 0
-135 0 0 120 0 120 135 0 135 0 0 -120z"/>
</g>
</svg>
